<svg width="220" height="60" viewBox="0 0 220 60" xmlns="http://www.w3.org/2000/svg">
  <defs>
    <linearGradient id="bagGradW" x1="0%" y1="0%" x2="100%" y2="100%">
      <stop offset="0%" style="stop-color:#ffffff"/>
      <stop offset="100%" style="stop-color:#dbe4ff"/>
    </linearGradient>
  </defs>

  <!-- Rounded square badge -->
  <rect x="2" y="4" width="50" height="50" rx="15" fill="url(#bagGradW)" fill-opacity="0.15"/>

  <!-- Shopping Bag Icon -->
  <g transform="translate(14, 15)" fill="none" stroke="#ffffff" stroke-width="2.3" stroke-linecap="round" stroke-linejoin="round">
    <path d="M2 8h24l-2 20a2.2 2.2 0 0 1-2.2 2H6.2A2.2 2.2 0 0 1 4 28L2 8z"/>
    <path d="M8 8V6a6 6 0 0 1 12 0v2"/>
  </g>

  <!-- Sparkle accent -->
  <path d="M48 2 l1.6 3.6 3.6 1.6 -3.6 1.6 -1.6 3.6 -1.6 -3.6 -3.6 -1.6 3.6 -1.6z" fill="#FFC107"/>

  <!-- Brand Text -->
  <text x="62" y="32" font-family="'Segoe UI', Arial, sans-serif" font-size="26" font-weight="800" fill="#ffffff" letter-spacing="0.5">
    E-Mart
  </text>

  <!-- Tagline -->
  <text x="63" y="47" font-family="'Segoe UI', Arial, sans-serif" font-size="10" font-weight="500" fill="#c7d2fe" letter-spacing="2">
    SHOP • SAVE • SMILE
  </text>
</svg>
